<svg xmlns="http://www.w3.org/2000/svg" enable-background="new 0 0 100 100" viewBox="0 0 100 100"><path d="M9.008,46.281c1.582,0.871,3.678,1.349,5.855,1.349c0.281,0,0.564-0.008,0.847-0.024c0.691-0.039,1.361-0.104,2.03-0.169
	l-6.433,19.879c-0.015,0.047-0.029,0.094-0.041,0.142c-0.346,1.421-0.507,2.703-0.493,3.92c0.11,9.255,7.742,16.785,17.013,16.785
	H50h22.213c9.271,0,16.903-7.53,17.013-16.785c0.014-1.216-0.147-2.499-0.493-3.919c-0.012-0.048-0.025-0.095-0.041-0.142
	l-6.433-19.879c0.669,0.065,1.339,0.13,2.029,0.169c0.284,0.016,0.566,0.024,0.848,0.024c2.177,0,4.273-0.479,5.855-1.349
	c1.898-1.045,4.134-3.565,4.003-9.631c-0.069-3.163-0.98-6.401-2.871-10.193c-7.319-14.637-24.42-14.612-38.163-14.619l-3.961,0
	l-3.961,0c-13.76-0.014-30.844-0.019-38.164,14.621c-1.889,3.79-2.801,7.028-2.87,10.191C4.874,42.716,7.11,45.236,9.008,46.281z
	 M9.004,36.737c0.055-2.552,0.834-5.25,2.45-8.491c6.212-12.424,21.297-12.396,34.582-12.408l3.964,0l3.964,0
	c13.301-0.005,28.37-0.017,34.581,12.405c1.617,3.243,2.396,5.942,2.451,8.494c0.04,1.836-0.159,5.063-1.934,6.041
	c-1.128,0.622-2.829,0.934-4.546,0.835c-1.679-0.096-3.291-0.275-4.804-0.536c-2.24-0.371-4.521-0.918-6.786-1.628l-0.331-0.1
	c-0.564-0.169-1.148-0.345-1.354-0.572c-1.283-1.419-1.54-2.903-1.896-4.958c-0.092-0.527-0.186-1.069-0.301-1.633
	c-1.518-7.347-6.508-11.072-14.831-11.072H50h-4.213c-0.535,0-1.059,0.015-1.571,0.045c-1.103,0.065-1.944,1.011-1.879,2.114
	c0.063,1.063,0.944,1.883,1.995,1.883c0.04,0,0.079-0.001,0.119-0.003c0.436-0.025,0.882-0.038,1.337-0.038H50h4.213
	c6.422,0,9.788,2.431,10.913,7.878c0.106,0.519,0.193,1.021,0.278,1.51c0.398,2.301,0.811,4.68,2.872,6.958
	c0.955,1.054,2.183,1.423,3.17,1.719l0.291,0.088c2.034,0.638,4.086,1.147,6.113,1.533l7.014,21.674
	c0.254,1.063,0.373,1.997,0.363,2.855c-0.084,7.076-5.921,12.833-13.013,12.833H50H27.787c-7.092,0-12.929-5.756-13.013-12.832
	c-0.01-0.858,0.108-1.793,0.363-2.855l7.014-21.675c2.031-0.387,4.08-0.895,6.105-1.53l0.298-0.09
	c0.987-0.296,2.215-0.665,3.171-1.72c2.06-2.277,2.472-4.656,2.871-6.957c0.085-0.489,0.171-0.991,0.277-1.506
	c0.738-3.573,2.374-5.772,5.146-6.923c1.02-0.423,1.504-1.593,1.081-2.614c-0.424-1.02-1.594-1.504-2.614-1.081
	c-3.994,1.657-6.527,4.957-7.53,9.812c-0.114,0.56-0.208,1.102-0.3,1.629c-0.356,2.055-0.613,3.539-1.895,4.956
	c-0.208,0.229-0.791,0.404-1.355,0.573l-0.338,0.103c-2.257,0.708-4.538,1.255-6.791,1.627c-1.501,0.259-3.113,0.438-4.792,0.534
	c-1.716,0.097-3.417-0.214-4.545-0.835C9.163,41.8,8.965,38.573,9.004,36.737z"/><path d="M29.484,58.416c0,11.303,9.204,20.499,20.516,20.499s20.516-9.196,20.516-20.499c0-11.313-9.204-20.516-20.516-20.516
	S29.484,47.103,29.484,58.416z M50,41.899c9.107,0,16.516,7.409,16.516,16.516c0,9.097-7.409,16.499-16.516,16.499
	s-16.516-7.401-16.516-16.499C33.484,49.309,40.893,41.899,50,41.899z"/><path d="M41.457 63.853c.25 0 .504-.047.75-.146 1.024-.414 1.518-1.58 1.104-2.604-.346-.854-.521-1.76-.521-2.691 0-3.976 3.234-7.21 7.21-7.21 1.071 0 2.102.229 3.062.68 1 .47 2.19.04 2.661-.959.47-1 .041-2.191-.959-2.661-1.497-.704-3.099-1.06-4.763-1.06-6.182 0-11.21 5.029-11.21 11.21 0 1.448.273 2.858.813 4.191C39.917 63.381 40.667 63.853 41.457 63.853zM57.21 58.411c0 3.971-3.234 7.202-7.21 7.202-1.22 0-2.424-.31-3.484-.896-.967-.535-2.183-.184-2.718.782s-.185 2.183.782 2.718c1.65.913 3.524 1.396 5.419 1.396 6.182 0 11.21-5.025 11.21-11.202 0-1.858-.465-3.701-1.345-5.328-.526-.971-1.74-1.334-2.711-.808-.971.525-1.333 1.739-.808 2.711C56.912 56.031 57.21 57.215 57.21 58.411z"/></svg>